TITLE ""
FILE "Step3_Track13.mp3" MP3
  TRACK 01 AUDIO
    TITLE "Step3_Track13_01"
    INDEX 01 00:00:00
  TRACK 02 AUDIO
    TITLE "Step3_Track13_02"
    INDEX 01 00:00:24
  TRACK 03 AUDIO
    TITLE "Step3_Track13_03"
    INDEX 01 00:01:70
  TRACK 04 AUDIO
    TITLE "Step3_Track13_04"
    INDEX 01 00:02:50
  TRACK 05 AUDIO
    TITLE "Step3_Track13_05"
    INDEX 01 00:03:46
  TRACK 06 AUDIO
    TITLE "Step3_Track13_06"
    INDEX 01 00:03:58
  TRACK 07 AUDIO
    TITLE "Step3_Track13_07"
    INDEX 01 00:05:47
  TRACK 08 AUDIO
    TITLE "Step3_Track13_08"
    INDEX 01 00:06:03
  TRACK 09 AUDIO
    TITLE "Step3_Track13_09"
    INDEX 01 00:06:74
  TRACK 10 AUDIO
    TITLE "Step3_Track13_10"
    INDEX 01 00:07:01
  TRACK 11 AUDIO
    TITLE "Step3_Track13_11"
    INDEX 01 00:09:21
  TRACK 12 AUDIO
    TITLE "Step3_Track13_12"
    INDEX 01 00:09:48
  TRACK 13 AUDIO
    TITLE "Step3_Track13_13"
    INDEX 01 00:10:44
  TRACK 14 AUDIO
    TITLE "Step3_Track13_14"
    INDEX 01 00:10:46
  TRACK 15 AUDIO
    TITLE "Step3_Track13_15"
    INDEX 01 00:12:55
  TRACK 16 AUDIO
    TITLE "Step3_Track13_16"
    INDEX 01 00:13:15
  TRACK 17 AUDIO
    TITLE "Step3_Track13_17"
    INDEX 01 00:14:20
  TRACK 18 AUDIO
    TITLE "Step3_Track13_18"
    INDEX 01 00:14:22
  TRACK 19 AUDIO
    TITLE "Step3_Track13_19"
    INDEX 01 00:16:54
  TRACK 20 AUDIO
    TITLE "Step3_Track13_20"
    INDEX 01 00:17:05
  TRACK 21 AUDIO
    TITLE "Step3_Track13_21"
    INDEX 01 00:17:75
  TRACK 22 AUDIO
    TITLE "Step3_Track13_22"
    INDEX 01 00:18:02
  TRACK 23 AUDIO
    TITLE "Step3_Track13_23"
    INDEX 01 00:20:31
  TRACK 24 AUDIO
    TITLE "Step3_Track13_24"
    INDEX 01 00:20:52
  TRACK 25 AUDIO
    TITLE "Step3_Track13_25"
    INDEX 01 00:21:58
  TRACK 26 AUDIO
    TITLE "Step3_Track13_26"
    INDEX 01 00:21:59
  TRACK 27 AUDIO
    TITLE "Step3_Track13_27"
    INDEX 01 00:24:42
  TRACK 28 AUDIO
    TITLE "Step3_Track13_28"
    INDEX 01 00:24:62
  TRACK 29 AUDIO
    TITLE "Step3_Track13_29"
    INDEX 01 00:25:63
  TRACK 30 AUDIO
    TITLE "Step3_Track13_30"
    INDEX 01 00:25:65
  TRACK 31 AUDIO
    TITLE "Step3_Track13_31"
    INDEX 01 00:28:20
  TRACK 32 AUDIO
    TITLE "Step3_Track13_32"
    INDEX 01 00:28:46
  TRACK 33 AUDIO
    TITLE "Step3_Track13_33"
    INDEX 01 00:29:37
  TRACK 34 AUDIO
    TITLE "Step3_Track13_34"
    INDEX 01 00:29:39
  TRACK 35 AUDIO
    TITLE "Step3_Track13_35"
    INDEX 01 00:32:36
  TRACK 36 AUDIO
    TITLE "Step3_Track13_36"
    INDEX 01 00:32:51
  TRACK 37 AUDIO
    TITLE "Step3_Track13_37"
    INDEX 01 00:33:55
  TRACK 38 AUDIO
    TITLE "Step3_Track13_38"
    INDEX 01 00:33:57
  TRACK 39 AUDIO
    TITLE "Step3_Track13_39"
    INDEX 01 00:36:20
  TRACK 40 AUDIO
    TITLE "Step3_Track13_40"
    INDEX 01 00:36:37
  TRACK 41 AUDIO
    TITLE "Step3_Track13_41"
    INDEX 01 00:37:33
  TRACK 42 AUDIO
    TITLE "Step3_Track13_42"
    INDEX 01 00:37:41
  TRACK 43 AUDIO
    TITLE "Step3_Track13_43"
    INDEX 01 00:39:34
